<?xml version="1.0" encoding="utf-8"?>
<!-- Generator: Adobe Illustrator 16.0.0, SVG Export Plug-In . SVG Version: 6.00 Build 0)  -->
<!DOCTYPE svg PUBLIC "-//W3C//DTD SVG 1.1//EN" "http://www.w3.org/Graphics/SVG/1.1/DTD/svg11.dtd">
<svg version="1.1" id="Layer_1" xmlns="http://www.w3.org/2000/svg" xmlns:xlink="http://www.w3.org/1999/xlink" x="0px" y="0px"
	 width="150px" height="53px" viewBox="0 0 150 53" enable-background="new 0 0 150 53" xml:space="preserve">
<path fill="#fff" d="M48.584,16.548L39.72,42.059h-0.135l-8.797-25.511h-6.496l-8.796,25.511H15.36L6.496,16.548H0l12.992,35.254
	h5.007l9.474-27.54h0.135l9.473,27.54h5.008l12.992-35.254H48.584z"/>
<path fill="#fff" d="M74.502,15.736c-3.181,0-7.376,0.474-12.722,2.707l2.639,5.075c3.316-1.624,6.429-2.436,9.744-2.436
	c4.735,0,10.556,1.285,10.556,7.105v3.653c-3.248-2.909-7.172-3.991-10.894-3.991c-9.812,0-15.292,5.684-15.292,12.111
	c0,7.85,6.766,12.654,15.36,12.654c4.667,0,8.119-1.354,11.232-4.602v3.789h5.684v-24.09C90.809,19.323,82.96,15.736,74.502,15.736z
	 M74.975,47.27c-7.443,0-9.947-3.586-9.947-7.039c0-3.449,2.504-7.037,9.947-7.037s9.947,3.588,9.947,7.037
	C84.922,43.684,82.418,47.27,74.975,47.27z"/>
<path fill="#fff" d="M106.915,0.376v40.397c0,3.992,1.963,5.346,3.924,5.346h1.828v5.683h-2.504
	c-5.616,0-9.338-3.18-9.338-10.556V0.376H106.915z"/>
<polygon fill="#fff" points="136.958,2.136 145.146,2.136 145.146,2.676 136.282,11.068 131.477,11.068 "/>
<path fill="#fff" d="M133.643,15.737c-3.181,0-7.375,0.473-12.722,2.706l2.64,5.075c3.315-1.624,6.428-2.436,9.744-2.436
	c4.735,0,10.555,1.285,10.555,7.105v3.653c-3.248-2.909-7.172-3.991-10.894-3.991c-9.812,0-15.292,5.684-15.292,12.111
	c0,7.85,6.766,12.654,15.36,12.654c4.668,0,8.118-1.354,11.231-4.602v3.789h5.685V27.714
	C149.95,19.323,142.102,15.737,133.643,15.737z M134.116,47.27c-7.443,0-9.947-3.586-9.947-7.037s2.504-7.037,9.947-7.037
	c7.442,0,9.946,3.586,9.946,7.037S141.559,47.27,134.116,47.27z"/>
</svg>
